<?xml version="1.0" standalone="no"?><!DOCTYPE svg PUBLIC "-//W3C//DTD SVG 1.1//EN" "http://www.w3.org/Graphics/SVG/1.1/DTD/svg11.dtd"><svg class="icon" height="512" viewBox="0 0 1024 1024" version="1.1" xmlns="http://www.w3.org/2000/svg"><path d="M154.24 309.12L335.36 576a100.48 100.48 0 0 0 53.76-35.2L192 284.8z m0 0L512 832h7.68L160.64 309.12zM848.64 640L128 120.32l5.76-3.84 715.52 512z m64 93.44L102.4 142.72v-37.12L64 64l57.6 44.8 6.4 35.2 768 554.88-44.16-64L960 712.32l-3.84 5.12-19.2-13.44z m-432 217.6a163.2 163.2 0 0 0 120.32-35.84c-15.36 0-24.32 0-26.88-12.16s-12.16-14.72-28.16-16.64c-46.08-5.12-67.2 16.64-65.28 62.72z m24.32-304c5.76 0 7.04 0 5.12 5.12s-6.4 5.12-12.16 0-7.68-10.88 0-18.56a16 16 0 0 1 20.48-6.4 77.44 77.44 0 0 1 27.52 24.32 217.6 217.6 0 0 0 30.72 32c6.4 6.4 11.52 7.68 15.36 0s3.84-8.32 0-8.96a5.12 5.12 0 0 1 0-7.68c5.12 0 7.68 0 8.96 8.32 0 18.56-4.48 24.96-23.04 18.56a64 64 0 0 1-32.64-27.52 112.64 112.64 0 0 0-32-32 10.88 10.88 0 0 0-11.52 5.12c-3.2 0.64-1.92 5.76 2.56 5.76z m-106.24 64a5.12 5.12 0 0 0 0 7.68 8.96 8.96 0 0 0 5.12-11.52c0-8.32-8.32-10.24-18.56-8.32s-14.08 6.4-13.44 15.36a64 64 0 0 0 13.44 33.28 192 192 0 0 1 21.12 39.04 14.72 14.72 0 0 1 0 14.08s-8.32 0-7.68-5.12a7.04 7.04 0 0 0-10.24 0 17.28 17.28 0 0 0 5.12 11.52 17.92 17.92 0 0 0 26.88-13.44 64 64 0 0 0-16-38.4 92.8 92.8 0 0 1-20.48-39.04c0-3.84 0-5.76 8.32-6.4s8.96 2.56 6.4 2.56zM90.24 252.8c6.4-3.84 10.88-3.2 14.08 0a8.32 8.32 0 0 1 0 12.16c-5.76 3.2-9.6 0-12.8 0A8.32 8.32 0 0 1 88.32 256z m16 29.44a9.6 9.6 0 0 1 12.8 0c5.12 6.4 0 10.88-4.48 12.8s-9.6 5.12-14.08 0 0-8.32 3.84-12.8z m71.04-57.6a8.32 8.32 0 0 0 0 12.16 9.6 9.6 0 0 0 12.8 0 11.52 11.52 0 0 0 4.48-14.08 10.24 10.24 0 0 0-20.48 0z m22.4 25.6a8.32 8.32 0 0 0 0 12.16 10.24 10.24 0 0 0 14.08 0 8.32 8.32 0 0 0 0-12.16 8.32 8.32 0 0 0-8.96-7.68 8.32 8.32 0 0 0-7.68 8.96zM192 285.44l384 506.88v-5.76z m-17.92 10.24l375.04 512 7.04-4.48-377.6-512z m-11.52 7.68l368.64 517.76 6.4-3.84-366.72-517.76z m448 604.8c-78.08 53.76-135.04 64-172.16 35.2A133.12 133.12 0 0 1 384 851.84q0-36.48-25.6-38.4c18.56-8.32 25.6-16.64 21.12-26.88l-16-35.84a47.36 47.36 0 0 0-26.24-23.68 19.2 19.2 0 0 0-23.04 5.76c4.48-11.52 0-25.6-22.4-42.24a97.92 97.92 0 0 1-44.8-83.84 94.72 94.72 0 0 1 53.76-79.36L152.96 309.12h-3.2c-31.36-43.52-44.8-72.96-39.68-87.04A17.92 17.92 0 0 1 128 211.84a64 64 0 0 1 24.96 12.16 216.32 216.32 0 0 1 48.64 53.76h-5.76l160 211.84a118.4 118.4 0 0 1 97.92-16 90.24 90.24 0 0 1 71.04 64c7.04 23.04 17.92 35.2 33.28 35.2-9.6 0-15.36 7.68-15.36 18.56a43.52 43.52 0 0 0 14.72 30.72l28.8 28.16c8.32 8.32 19.84 4.48 34.56-9.6-5.12 14.08 4.48 26.88 28.16 36.48a135.04 135.04 0 0 1 64 86.4c15.36 44.8-17.28 91.52-95.36 138.24 5.12 0 5.12-8.96 0-15.36a138.24 138.24 0 0 1-28.8-57.6 205.44 205.44 0 0 0-12.8-48 163.84 163.84 0 0 1-64 43.52 261.12 261.12 0 0 0 42.88 28.16 158.08 158.08 0 0 1 47.36 44.8c0 6.4 5.76 8.96 10.88 5.12z" /></svg>